<?xml version="1.0" encoding="utf-8"?>
<!DOCTYPE svg PUBLIC "-//W3C//DTD SVG 20010904//EN" "http://www.w3.org/TR/2001/REC-SVG-20010904/DTD/svg10.dtd">
<svg version="1.0" xmlns="http://www.w3.org/2000/svg" width="300px" height="96px" viewBox="0 0 300 96" preserveAspectRatio="xMidYMid meet">
 <g fill="#d9ccd1">
  <path d="M0 95.5 c0 -0.3 1.2 -2.3 2.6 -4.4 2.4 -3.7 7.7 -7.9 11.7 -9.4 1.2 -0.5 1.7 -1.8 1.7 -4.9 0 -10.5 6.8 -24.7 16.3 -34.1 3.7 -3.7 7.4 -6.7 8.2 -6.7 0.7 0 1.5 -0.3 1.7 -0.7 0.4 -0.9 7.8 -4.5 12.8 -6.2 8.1 -2.8 24.8 -2.4 34.7 0.7 l3.3 1.1 4 -6.9 c6.1 -10.5 14.3 -16.9 29.3 -22.9 5.2 -2 18.5 -1.4 26 1.4 8.1 2.9 7.8 2.8 14.5 7.8 9.3 7 17.2 21.4 17.2 31.2 0 2.4 0.4 4.7 1 5 0.5 0.3 3.3 -0.1 6.2 -1 6.4 -1.9 20.5 -1.9 27.5 -0.1 8.2 2.2 16.1 6.6 22.3 12.3 5.3 4.9 11.9 14.3 13.5 19.2 0.7 2.4 2.2 2.7 4.4 0.8 5.5 -4.5 19.2 -5.2 26.8 -1.5 6 3 14.3 12.9 14.3 17 l0 2.8 -150 0 c-82.5 0 -150 -0.2 -150 -0.5z"/>
 </g>
</svg>