<svg id="Layer_1" enable-background="new 0 0 512.539 512.539" height="512" viewBox="0 0 512.539 512.539" width="512" xmlns="http://www.w3.org/2000/svg"><g><g><path d="m186.654 325.624-2.234 5.757 2.234-5.756z" fill="#695a6e"/><path d="m477.507 247.789c-3.467-99.342-66.726-156.651-67.873-158.442-43.364-44.365-103.859-71.914-170.797-71.914-49.847 0-96.004 15.213-134.188 41.196-63.639 43.304-86.074 115.084-85.588 197.641.775 131.679 88.156 216.597 219.833 215.494 72.604-.608 139.454-10.287 182.857-61.94.001 0 .001.001.002.002 11.962-14.262 22.114-29.658 30.355-45.959-.004.003-.009.006-.013.009 17.998-35.587 26.834-75.372 25.412-116.087z" fill="#b930d6"/><path d="m468.317 322.588c-37.824 25.895-83.465 41.205-132.67 41.617-131.677 1.103-240.099-105.711-240.874-237.39-.138-23.532 3.15-46.298 9.373-67.836-63.353 43.348-104.627 116.39-104.142 198.728.775 131.679 109.197 238.493 240.874 237.39 72.604-.608 137.47-33.621 180.873-85.273.001 0 .001.001.002.002 11.962-14.262 22.114-29.658 30.355-45.959-.004.003-.009.006-.013.009 6.694-13.238 12.119-27.057 16.222-41.288z" fill="#8d1ba5"/></g><g><path d="m432.716 148.312h-309.262v-18.279l91.25-23.573c42.023-6.251 84.739-6.251 126.762 0l91.25 23.573z" fill="#2b282d"/><path d="m190.833 97.915-50.994 12.9v30.549h62.679v-34.351c0-6.116-5.756-10.598-11.685-9.098z" fill="#55c7a6"/><path d="m158.425 136.364c-9.373 0-16.971-7.598-16.971-16.971 0-4.447 2.425-8.434 6.156-10.544l-15.011 3.797c-5.378 1.36-9.145 6.199-9.145 11.746v16.971h79.064v-5h-44.093z" fill="#39ae96"/><path d="m423.447 112.646-51.095-12.925v41.643h60.24v-16.971c0-5.548-3.767-10.387-9.145-11.747z" fill="#55c7a6"/><path d="m373.982 112.257v-12.124l-8.769-2.218c-5.929-1.5-11.685 2.982-11.685 9.097v34.351h79.064v-10.645h-40.149c-10.196.001-18.461-8.265-18.461-18.461z" fill="#39ae96"/><ellipse cx="278.085" cy="197.753" fill="#2b282d" rx="150.695" ry="80.876"/><path d="m236.079 126.148 10.526 16.668c6.889 10.909 18.89 17.524 31.792 17.524h53.849c10.863 0 21.194-4.698 28.335-12.884l11.331-12.989c-25.744-11.008-58.351-17.591-93.826-17.591-16.383 0-32.15 1.408-46.917 4.003 1.912 1.41 3.59 3.178 4.91 5.269z" fill="#453d49"/><path d="m406.438 305.373c10.13-.454 18.757 8.946 18.757 18.757v72.399h58.141c26.819-31.613 36.784-75.892 23.063-117.706l-38.485-100.705c-7.881-20.622-25.426-36.03-46.893-41.182l-45.928-11.021c-7.039-1.689-14.434.671-19.192 6.126l-20.862 23.916c-7.141 8.186-17.472 12.884-28.335 12.884h-53.849c-12.902 0-24.903-6.615-31.792-17.524l-10.526-16.668c-4.355-6.897-12.552-10.343-20.526-8.63l-53.668 11.526c-.67.144-1.336.298-1.999.461-24.886 6.146-42.066 28.938-42.066 54.572v193.645c0 2.006-.321 3.909-.898 5.683h69.489l17.904-48.235c2.665-7.181 8.301-12.636 15.2-15.219-.269-1.188-.438-2.412-.494-3.66-.454-10.129 8.946-18.757 18.757-18.757h189.917c1.385-.36 2.815-.596 4.285-.662z" fill="#453d49"/><g fill="#2b282d"><circle cx="424.171" cy="186.192" r="12.881"/><circle cx="381.088" cy="215.382" r="12.881"/><circle cx="417.224" cy="222.328" r="12.881"/><circle cx="388.034" cy="179.245" r="12.881"/><path d="m100.666 242.413 38.117-99.742c.818-2.141 1.746-4.223 2.766-6.245l-5.205 1.118c-22.14 4.755-40.374 20.384-48.457 41.537l-38.117 99.742c-19.795 60.326 9.697 125.79 67.998 150.932 13.616 5.872 29.374-.866 34.534-14.768l9.271-24.977c-53.564-27.229-79.883-89.77-60.907-147.597z"/><circle cx="278.085" cy="149.203" r="18.826"/></g><circle cx="278.085" cy="144.203" fill="#55c7a6" r="18.826"/><path d="m454.765 378.577-26.472-71.317c-3.765-10.143-13.443-16.874-24.263-16.874-11.334 0-21.774-6.532-26.368-16.894-5.008-11.297-16.319-19.273-29.613-19.273-13.283 0-24.611 7.974-29.621 19.287-4.587 10.359-15.033 16.88-26.362 16.88h-11.285c-11.583 0-21.783-7.128-26.334-17.78-5.569-13.034-18.706-22.158-34.012-21.663-18.69.605-33.951 15.951-34.468 34.644-.129 4.666.642 9.135 2.148 13.249 2.421 6.611 2.543 13.842.093 20.442l-2.79 7.517-8.713 22.446 2.237-5.763c3.904-10.057 13.584-16.683 24.372-16.683h8.834 140.985c10.82 0 20.497 6.731 24.262 16.874l26.472 71.317c5.14 13.848 20.834 20.658 34.405 14.823 18.669-8.026 34.383-20.189 46.485-34.99-12.404 2.826-25.398-3.864-29.992-16.242z" fill="#2b282d"/><circle cx="348.049" cy="274.595" fill="#2b282d" r="32.375"/><circle cx="348.049" cy="274.595" fill="#594d5e" r="25.933"/><path d="m362.501 279.594c0-9.396-8.195-15.19-16.082-14.377-3.975.41-6.455-4.056-3.909-7.135.124-.15.249-.298.376-.445 3.061-3.536-.848-8.714-5.136-6.847-9.043 3.938-15.635 12.927-15.635 23.803 0 15.083 12.673 26.528 26.975 25.923 1.756-.074 2.284-2.438.752-3.3-.034-.019-.069-.039-.103-.058-1.461-.832-1.046-3.024.614-3.291 6.775-1.089 12.148-6.968 12.148-14.273z" fill="#453d49"/><circle cx="348.049" cy="274.595" fill="#927e8f" r="14.452"/><circle cx="251.774" cy="215.683" fill="#453d49" r="12.881"/><circle cx="321.132" cy="215.683" fill="#453d49" r="12.881"/><circle cx="221.623" cy="274.595" fill="#2b282d" r="35.67"/><circle cx="430.794" cy="181.705" fill="#ffc305" r="12.881"/><circle cx="387.71" cy="210.895" fill="#be5ab9" r="12.881"/><circle cx="423.847" cy="217.841" fill="#f73c9a" r="12.881"/><circle cx="394.657" cy="174.758" fill="#5ab4ff" r="12.881"/><circle cx="190.889" cy="186.192" fill="#2b282d" r="12.881"/><circle cx="147.806" cy="215.382" fill="#2b282d" r="12.881"/><circle cx="183.942" cy="222.328" fill="#2b282d" r="12.881"/><circle cx="154.752" cy="179.245" fill="#2b282d" r="12.881"/><circle cx="197.512" cy="181.705" fill="#ffc305" r="12.881"/><circle cx="154.428" cy="210.895" fill="#be5ab9" r="12.881"/><circle cx="190.565" cy="217.841" fill="#f73c9a" r="12.881"/><circle cx="161.376" cy="174.758" fill="#5ab4ff" r="12.881"/><circle cx="251.774" cy="207.683" fill="#2b282d" r="12.881"/><circle cx="321.132" cy="207.683" fill="#2b282d" r="12.881"/><path d="m226.412 299.018h-9.578c-3.557 0-6.44-2.883-6.44-6.44v-37.476c0-3.557 2.883-6.44 6.44-6.44h9.578c3.557 0 6.44 2.883 6.44 6.44v37.476c0 3.557-2.883 6.44-6.44 6.44z" fill="#927e8f"/><path d="m196.445 278.629v-9.578c0-3.557 2.883-6.44 6.44-6.44h37.476c3.557 0 6.44 2.883 6.44 6.44v9.578c0 3.557-2.883 6.44-6.44 6.44h-37.476c-3.557 0-6.44-2.883-6.44-6.44z" fill="#927e8f"/></g></g></svg>